<mxfile host="app.diagrams.net" agent="Mozilla/5.0 (iPad; CPU OS 18_3_2 like Mac OS X) AppleWebKit/605.1.15 (KHTML, like Gecko) Version/18.3.1 Mobile/15E148 Safari/604.1" version="26.1.3">
  <diagram name="Page-1" id="iSSEOzLkeUN4Taw5xJ0G">
    <mxGraphModel>
      <root>
        <mxCell id="0" />
        <mxCell id="1" parent="0" />
      </root>
    </mxGraphModel>
  </diagram>
</mxfile>
